<svg id="svg" version="1.1" xmlns="http://www.w3.org/2000/svg" xmlns:xlink="http://www.w3.org/1999/xlink" width="400" height="432.4324324324324" viewBox="0, 0, 400,432.4324324324324"><g id="svgg"><path id="path0" d="M196.200 107.474 C 159.426 110.683,128.058 135.428,116.608 170.263 C 114.855 175.597,115.102 176.961,117.901 177.398 C 126.462 178.735,131.993 184.410,132.050 191.914 C 132.078 195.485,131.982 195.356,140.271 203.000 C 149.794 211.781,148.544 211.031,152.593 210.401 C 155.538 209.943,156.281 209.960,158.674 210.541 C 160.173 210.904,161.760 211.199,162.200 211.195 C 162.781 211.190,182.956 194.766,185.541 192.193 C 185.684 192.052,185.897 189.655,186.016 186.868 C 186.203 182.482,186.377 181.486,187.310 179.465 C 193.197 166.711,213.582 166.737,219.891 179.507 L 221.400 182.561 221.400 187.990 C 221.400 194.466,220.600 193.098,229.904 202.535 C 236.507 209.233,236.552 209.269,237.972 208.997 C 238.757 208.847,240.722 208.673,242.337 208.610 C 245.932 208.472,244.721 209.858,253.988 195.268 C 263.379 180.481,262.894 181.619,261.295 178.134 C 255.865 166.304,262.061 153.100,274.565 149.856 C 279.000 148.705,279.276 147.121,275.826 142.617 C 257.496 118.685,226.169 104.859,196.200 107.474 M214.463 113.835 C 234.068 116.359,251.741 125.397,265.900 140.142 C 270.762 145.205,270.642 144.671,267.299 146.377 C 256.055 152.116,250.645 166.250,255.034 178.419 L 256.017 181.144 249.309 191.715 L 242.600 202.285 240.438 202.553 L 238.275 202.822 232.758 197.111 L 227.241 191.400 227.220 187.258 C 227.153 173.465,217.708 164.253,203.600 164.220 C 189.879 164.188,181.006 172.297,180.057 185.739 L 179.800 189.378 170.474 197.241 L 161.149 205.103 159.474 204.721 C 158.553 204.511,156.209 204.398,154.265 204.470 L 150.730 204.600 144.586 199.000 C 141.207 195.920,138.361 193.040,138.262 192.600 C 138.163 192.160,137.879 190.467,137.632 188.837 C 136.671 182.521,132.553 176.927,126.711 174.004 C 124.949 173.122,123.258 172.400,122.954 172.400 C 121.104 172.400,126.451 160.246,132.008 151.818 C 150.001 124.527,182.220 109.685,214.463 113.835 M275.141 155.542 C 265.580 159.398,262.309 172.153,269.059 179.253 L 270.061 180.307 258.728 198.253 L 247.395 216.200 243.759 216.062 C 240.704 215.947,239.798 216.065,238.085 216.802 L 236.046 217.679 231.303 212.739 C 228.694 210.023,224.018 205.135,220.912 201.879 L 215.264 195.957 216.128 194.079 C 222.104 181.087,204.721 169.227,194.574 179.374 C 191.058 182.890,190.399 185.747,191.285 193.618 C 191.396 194.602,163.603 219.505,162.847 219.098 C 158.471 216.743,154.550 216.373,150.911 217.972 L 148.822 218.889 147.699 217.945 C 143.063 214.044,126.400 199.057,126.400 198.788 C 126.400 198.603,126.591 197.949,126.825 197.334 C 129.428 190.488,123.653 182.670,115.972 182.644 C 103.968 182.604,100.487 199.214,111.480 204.077 C 114.650 205.479,116.656 205.430,121.800 203.823 C 123.067 203.428,144.974 222.951,144.606 224.147 C 141.276 234.938,151.187 244.061,160.993 239.233 C 166.371 236.586,168.494 231.463,166.976 224.800 C 166.736 223.746,165.612 224.777,190.895 202.849 L 195.219 199.099 197.710 200.449 C 200.907 202.183,206.086 202.402,209.263 200.937 L 211.126 200.078 221.426 210.882 L 231.727 221.686 230.966 223.743 C 226.969 234.551,237.802 245.012,248.106 240.295 C 255.159 237.065,257.917 227.623,253.562 221.611 C 252.923 220.729,252.400 219.834,252.400 219.622 C 252.400 219.410,257.468 211.210,263.662 201.400 L 274.925 183.564 276.162 183.882 C 293.396 188.311,302.759 164.764,287.101 156.372 C 283.900 154.657,278.300 154.268,275.141 155.542 M282.928 160.829 C 287.702 162.154,290.560 168.369,288.579 173.113 C 286.149 178.929,278.457 180.395,273.960 175.899 C 267.404 169.342,273.953 158.337,282.928 160.829 M207.046 181.965 C 209.863 183.244,212.000 187.169,211.360 189.885 C 209.657 197.108,200.573 198.480,197.300 192.010 C 194.163 185.808,200.692 179.080,207.046 181.965 M119.451 189.643 C 123.626 193.542,121.079 199.636,115.499 199.100 C 110.403 198.610,108.935 191.915,113.319 189.160 C 115.058 188.068,118.015 188.301,119.451 189.643 M288.833 189.612 C 286.356 191.290,283.614 192.000,279.604 192.000 C 275.169 192.000,276.167 190.925,266.802 205.800 C 257.820 220.066,258.312 218.734,260.159 223.800 C 262.869 231.235,259.690 240.379,252.874 244.753 C 239.234 253.505,221.640 241.153,225.184 225.314 C 225.810 222.517,225.916 222.667,216.735 213.256 L 209.669 206.015 205.535 206.107 C 202.924 206.166,200.638 205.991,199.332 205.633 C 196.750 204.924,197.958 204.131,184.769 215.190 C 171.608 226.225,172.267 225.512,172.586 228.360 C 173.541 236.895,166.704 245.549,158.074 246.729 C 147.035 248.239,137.548 239.046,138.578 227.838 L 138.839 225.000 135.720 221.973 C 134.004 220.308,130.216 216.750,127.302 214.065 L 122.004 209.184 118.102 209.444 C 112.159 209.842,111.957 210.316,113.817 219.550 C 120.745 253.936,146.914 281.471,180.963 290.198 C 237.610 304.716,293.271 262.863,295.064 204.400 C 295.522 189.481,294.079 186.057,288.833 189.612 M289.200 202.180 C 289.200 258.247,234.486 299.330,180.233 283.999 C 150.407 275.570,126.626 250.507,119.993 220.510 C 118.502 213.764,118.278 213.739,126.325 221.216 L 132.800 227.232 132.800 230.332 C 132.800 236.425,134.871 241.293,139.388 245.816 C 153.456 259.905,176.766 251.247,178.338 231.350 L 178.600 228.041 188.350 219.856 L 198.100 211.671 202.750 211.877 L 207.400 212.084 213.280 218.142 L 219.160 224.200 218.941 227.800 C 218.332 237.783,223.595 246.735,232.614 251.058 C 251.762 260.237,272.323 242.032,265.760 221.710 L 265.086 219.622 266.643 217.093 C 267.499 215.701,270.537 210.859,273.394 206.331 L 278.588 198.099 281.616 197.847 C 283.282 197.708,285.444 197.343,286.422 197.037 C 289.367 196.113,289.200 195.803,289.200 202.180 M245.874 222.377 C 252.138 225.222,250.478 234.849,243.609 235.509 C 236.927 236.151,233.367 228.167,238.264 223.523 C 240.418 221.480,243.031 221.087,245.874 222.377 M158.704 223.598 C 162.706 226.038,162.528 232.021,158.392 234.099 C 153.239 236.689,147.765 231.115,150.479 226.042 C 152.111 222.993,155.876 221.874,158.704 223.598 M13.485 415.500 C 14.263 417.645,15.087 419.985,15.316 420.700 C 15.632 421.683,16.800 422.615,16.800 421.885 C 16.800 421.821,17.607 419.481,18.593 416.685 C 19.580 413.888,20.254 411.600,20.093 411.600 C 19.931 411.600,19.098 413.625,18.241 416.100 C 16.275 421.776,16.332 421.731,15.214 418.504 C 13.326 413.052,12.735 411.600,12.407 411.600 C 12.223 411.600,12.708 413.355,13.485 415.500 M34.864 416.020 C 34.800 420.638,35.044 421.600,36.280 421.600 C 36.613 421.600,36.513 421.313,36.000 420.800 C 35.364 420.164,35.200 419.467,35.200 417.400 C 35.200 415.067,35.282 414.800,36.000 414.800 C 36.440 414.800,36.800 414.620,36.800 414.400 C 36.800 414.180,36.451 414.000,36.025 414.000 C 35.451 414.000,35.209 413.664,35.089 412.700 C 35.001 411.985,34.899 413.479,34.864 416.020 M52.126 412.003 C 49.196 413.183,50.204 416.253,53.821 417.164 C 57.675 418.134,56.603 421.098,52.549 420.680 C 49.909 420.407,49.431 421.366,51.991 421.799 C 55.166 422.335,57.353 421.099,57.288 418.807 C 57.240 417.113,57.059 416.937,54.348 415.949 C 53.014 415.463,51.830 414.823,51.717 414.527 C 51.129 412.996,54.161 412.197,55.911 413.423 C 56.739 414.003,56.800 413.992,56.800 413.262 C 56.800 411.988,54.021 411.239,52.126 412.003 M58.887 416.058 C 58.997 420.417,59.025 420.534,60.119 421.350 C 61.055 422.048,61.296 422.092,61.591 421.615 C 61.840 421.212,61.688 420.919,61.071 420.613 C 59.727 419.945,59.541 415.322,60.850 415.130 C 62.144 414.940,62.297 414.000,61.033 414.000 C 60.152 414.000,60.000 413.824,60.000 412.800 C 60.000 411.989,59.801 411.600,59.387 411.600 C 58.866 411.600,58.791 412.270,58.887 416.058 M77.970 411.900 C 77.938 412.217,77.943 417.434,77.979 420.300 C 78.006 422.492,78.716 422.516,78.877 420.331 C 79.044 418.059,79.697 418.016,81.185 420.178 C 81.962 421.307,82.740 422.000,83.232 422.000 C 83.923 422.000,83.817 421.719,82.413 419.817 C 80.458 417.171,80.464 417.378,82.281 415.517 C 83.544 414.224,83.644 414.000,82.960 414.000 C 82.518 414.000,81.546 414.630,80.800 415.400 C 78.961 417.297,78.800 417.201,78.800 414.200 C 78.800 412.185,78.129 410.325,77.970 411.900 M21.398 414.901 C 19.347 416.664,19.768 420.398,22.146 421.538 C 23.311 422.097,26.000 421.868,26.000 421.210 C 26.000 421.005,25.484 421.004,24.777 421.207 C 22.905 421.743,20.800 420.649,20.800 419.138 C 20.800 418.496,21.139 418.400,23.400 418.400 L 26.000 418.400 26.000 417.182 C 26.000 414.572,23.322 413.245,21.398 414.901 M29.400 414.483 C 27.758 415.425,27.038 418.070,27.848 420.182 C 28.386 421.583,31.484 422.464,32.800 421.589 C 33.250 421.290,33.050 421.208,32.000 421.262 C 30.010 421.365,28.990 420.936,28.461 419.773 C 27.149 416.894,28.700 414.551,31.800 414.733 C 32.716 414.787,32.858 414.710,32.400 414.408 C 31.608 413.885,30.389 413.916,29.400 414.483 M39.600 414.516 C 38.037 415.303,37.331 417.798,38.130 419.703 C 39.820 423.725,45.189 421.828,44.646 417.401 C 44.309 414.653,41.975 413.319,39.600 414.516 M46.000 418.000 C 46.000 420.400,46.160 422.000,46.400 422.000 C 46.633 422.000,46.800 420.678,46.800 418.834 C 46.800 415.717,46.819 415.659,47.971 415.149 C 48.615 414.864,49.049 414.479,48.934 414.293 C 48.820 414.108,48.293 414.240,47.763 414.587 C 46.910 415.146,46.800 415.149,46.800 414.609 C 46.800 414.274,46.620 414.000,46.400 414.000 C 46.160 414.000,46.000 415.600,46.000 418.000 M63.969 415.169 C 63.052 416.086,62.800 416.697,62.800 418.000 C 62.800 421.831,67.642 423.459,69.156 420.137 C 71.064 415.949,67.042 412.096,63.969 415.169 M72.808 414.514 C 68.879 416.502,71.430 423.124,75.613 421.796 C 76.866 421.398,76.316 420.581,74.894 420.727 C 74.050 420.814,73.390 420.590,72.827 420.027 C 71.020 418.220,72.427 414.937,74.857 415.294 C 76.152 415.484,76.822 414.913,75.951 414.361 C 75.174 413.869,73.967 413.927,72.808 414.514 M25.120 416.102 C 25.848 417.629,25.465 418.000,23.164 418.000 C 20.856 418.000,20.342 417.358,21.381 415.773 C 22.313 414.350,24.371 414.531,25.120 416.102 M43.377 415.689 C 45.648 418.931,41.592 423.453,39.134 420.418 C 37.353 418.219,38.610 414.800,41.200 414.800 C 42.353 414.800,42.915 415.030,43.377 415.689 M67.771 415.829 C 68.596 416.653,68.576 419.142,67.738 420.069 C 66.286 421.673,64.000 420.450,64.000 418.070 C 64.000 415.628,66.240 414.297,67.771 415.829 M289.852 418.700 C 291.275 422.482,291.128 422.475,292.340 418.831 C 293.341 415.820,293.211 415.064,292.176 417.876 C 291.141 420.688,290.943 420.724,290.162 418.245 C 289.772 417.010,289.315 416.000,289.145 416.000 C 288.975 416.000,289.293 417.215,289.852 418.700 M313.500 416.432 C 312.413 417.065,312.668 417.949,314.200 418.853 C 314.970 419.307,315.600 419.951,315.600 420.283 C 315.600 420.738,315.254 420.847,314.200 420.724 C 312.593 420.536,312.303 421.060,313.805 421.437 C 315.989 421.985,316.812 419.640,314.800 418.600 C 313.170 417.757,313.222 416.802,314.900 416.794 C 315.886 416.789,316.055 416.694,315.600 416.400 C 314.844 415.912,314.382 415.919,313.500 416.432 M328.460 418.833 C 328.493 420.465,328.595 421.305,328.687 420.700 C 328.897 419.307,329.727 419.283,330.351 420.652 C 330.614 421.230,330.928 421.606,331.047 421.486 C 331.167 421.366,331.052 420.870,330.791 420.384 C 330.426 419.701,330.427 419.258,330.794 418.449 L 331.271 417.400 330.277 418.330 C 329.196 419.343,328.980 419.205,328.870 417.432 C 328.716 414.949,328.403 416.018,328.460 418.833 M350.922 418.893 C 349.752 422.740,350.047 422.835,351.329 419.023 C 351.888 417.360,352.222 416.002,352.073 416.004 C 351.923 416.006,351.405 417.306,350.922 418.893 M354.100 416.265 C 353.145 416.650,353.607 417.060,354.800 416.885 C 356.506 416.635,356.404 417.878,354.600 419.317 C 352.533 420.967,352.738 421.615,355.300 421.530 C 357.308 421.463,357.325 421.454,355.700 421.307 C 353.638 421.121,353.604 420.898,355.400 419.308 C 356.967 417.920,357.078 417.535,356.171 416.629 C 355.535 415.992,355.006 415.899,354.100 416.265 M358.000 417.243 C 358.000 418.145,358.154 418.427,358.561 418.270 C 359.390 417.952,360.510 418.936,360.333 419.826 C 360.224 420.370,359.853 420.595,359.084 420.584 C 357.824 420.565,357.842 421.338,359.106 421.525 C 360.511 421.732,361.478 419.884,360.637 418.600 C 360.276 418.050,359.611 417.600,359.157 417.600 C 357.943 417.600,358.458 416.645,359.833 416.347 C 360.935 416.109,360.917 416.092,359.500 416.047 C 358.078 416.002,358.000 416.065,358.000 417.243 M362.629 416.629 C 361.472 417.785,362.161 419.200,363.880 419.200 C 364.386 419.200,364.800 419.344,364.800 419.520 C 364.800 420.085,363.862 420.800,363.120 420.800 C 362.724 420.800,362.400 420.980,362.400 421.200 C 362.400 421.857,363.828 421.653,364.507 420.900 C 366.570 418.610,364.761 414.496,362.629 416.629 M366.800 417.243 C 366.800 418.145,366.954 418.427,367.361 418.270 C 368.190 417.952,369.310 418.936,369.133 419.826 C 369.024 420.370,368.653 420.595,367.884 420.584 C 367.282 420.575,366.852 420.755,366.928 420.984 C 367.215 421.844,368.964 421.410,369.571 420.327 C 370.270 419.083,369.364 417.600,367.905 417.600 C 366.735 417.600,367.295 416.637,368.633 416.347 C 369.735 416.109,369.717 416.092,368.300 416.047 C 366.878 416.002,366.800 416.065,366.800 417.243 M371.429 416.629 C 370.272 417.785,370.961 419.200,372.680 419.200 C 373.186 419.200,373.600 419.344,373.600 419.520 C 373.600 420.085,372.662 420.800,371.920 420.800 C 371.524 420.800,371.200 420.980,371.200 421.200 C 371.200 421.867,372.633 421.648,373.333 420.874 C 375.348 418.647,373.509 414.548,371.429 416.629 M376.415 417.900 L 375.229 419.800 376.414 419.925 C 377.277 420.017,377.600 420.262,377.600 420.825 C 377.600 421.903,378.316 421.800,378.472 420.700 C 378.688 419.178,378.344 416.000,377.962 416.000 C 377.764 416.000,377.068 416.855,376.415 417.900 M381.300 416.287 C 382.536 416.474,382.685 416.866,381.800 417.600 C 380.979 418.281,381.047 418.667,382.035 418.925 C 383.305 419.257,382.862 420.604,381.489 420.584 C 380.193 420.565,380.056 421.037,381.247 421.415 C 382.526 421.821,383.835 420.387,383.226 419.249 C 382.976 418.782,382.577 418.400,382.340 418.400 C 382.089 418.400,382.178 417.988,382.554 417.414 C 383.443 416.057,383.402 415.992,381.700 416.060 C 380.493 416.108,380.415 416.152,381.300 416.287 M385.023 416.889 C 383.316 419.325,385.798 423.172,387.642 420.949 C 387.939 420.592,388.182 419.624,388.182 418.800 C 388.182 416.198,386.303 415.062,385.023 416.889 M364.600 417.800 C 364.600 418.991,363.039 418.872,362.868 417.668 C 362.758 416.892,362.892 416.758,363.668 416.868 C 364.289 416.956,364.600 417.267,364.600 417.800 M373.400 417.800 C 373.400 418.991,371.839 418.872,371.668 417.668 C 371.558 416.892,371.692 416.758,372.468 416.868 C 373.089 416.956,373.400 417.267,373.400 417.800 M387.400 418.800 C 387.400 421.199,385.497 421.612,385.272 419.262 C 385.093 417.392,385.437 416.721,386.498 416.872 C 387.281 416.983,387.400 417.237,387.400 418.800 M302.758 417.651 C 302.586 419.874,303.178 421.600,304.111 421.600 C 304.338 421.600,304.226 421.271,303.862 420.869 C 303.108 420.036,302.980 418.540,303.644 418.319 C 303.922 418.226,303.847 417.971,303.444 417.636 C 302.905 417.189,302.793 417.192,302.758 417.651 M317.158 417.651 C 316.986 419.874,317.578 421.600,318.511 421.600 C 318.738 421.600,318.626 421.271,318.262 420.869 C 317.508 420.036,317.380 418.540,318.044 418.319 C 318.322 418.226,318.247 417.971,317.844 417.636 C 317.305 417.189,317.193 417.192,317.158 417.651 M377.600 418.400 C 377.600 419.333,377.422 419.600,376.800 419.600 C 375.832 419.600,375.816 419.452,376.646 418.186 C 377.478 416.917,377.600 416.944,377.600 418.400 M294.629 418.229 C 293.207 419.650,294.749 422.154,296.499 421.266 C 297.323 420.849,297.331 420.813,296.600 420.851 C 295.136 420.926,294.800 420.805,294.800 420.200 C 294.800 419.800,295.200 419.600,296.000 419.600 C 297.258 419.600,297.574 418.934,296.720 418.080 C 296.068 417.428,295.380 417.477,294.629 418.229 M299.062 418.331 C 298.202 419.282,298.224 420.117,299.131 420.938 C 299.973 421.700,301.029 421.801,301.426 421.157 C 301.605 420.869,301.439 420.796,300.950 420.948 C 300.071 421.222,299.442 420.872,299.088 419.912 C 298.738 418.963,299.872 417.905,300.892 418.229 C 301.430 418.400,301.609 418.337,301.426 418.043 C 301.009 417.367,299.801 417.514,299.062 418.331 M305.862 418.331 C 304.984 419.302,305.027 420.119,306.002 421.001 C 307.183 422.071,308.800 421.274,308.800 419.623 C 308.800 417.785,307.052 417.017,305.862 418.331 M310.040 419.800 L 310.080 421.800 310.447 420.239 C 310.648 419.381,311.083 418.481,311.414 418.239 C 311.909 417.877,311.837 417.800,311.007 417.800 C 310.060 417.800,310.002 417.919,310.040 419.800 M320.262 418.331 C 319.384 419.302,319.427 420.119,320.402 421.001 C 321.583 422.071,323.200 421.274,323.200 419.623 C 323.200 417.785,321.452 417.017,320.262 418.331 M325.062 418.331 C 324.202 419.282,324.224 420.117,325.131 420.938 C 325.978 421.704,327.029 421.800,327.432 421.148 C 327.603 420.872,327.495 420.773,327.156 420.894 C 326.243 421.219,325.200 420.438,325.200 419.429 C 325.200 418.393,326.029 417.883,327.066 418.281 C 327.513 418.452,327.636 418.383,327.442 418.068 C 327.010 417.370,325.812 417.502,325.062 418.331 M335.062 418.331 C 334.202 419.282,334.224 420.117,335.131 420.938 C 335.978 421.704,337.029 421.800,337.432 421.148 C 337.603 420.872,337.495 420.773,337.156 420.894 C 336.321 421.191,335.200 420.470,335.200 419.635 C 335.200 418.636,336.140 417.925,337.015 418.261 C 337.507 418.450,337.641 418.389,337.442 418.068 C 337.010 417.370,335.812 417.502,335.062 418.331 M339.062 418.331 C 338.184 419.302,338.227 420.119,339.202 421.001 C 340.899 422.538,343.191 419.991,341.570 418.370 C 340.606 417.406,339.909 417.395,339.062 418.331 M343.200 419.746 C 343.200 421.858,343.504 422.051,343.835 420.149 C 344.271 417.639,346.000 417.539,346.000 420.024 C 346.000 420.891,346.180 421.600,346.400 421.600 C 346.620 421.600,346.800 420.899,346.800 420.043 C 346.800 419.076,347.013 418.404,347.361 418.270 C 348.176 417.957,348.400 418.344,348.400 420.067 C 348.400 420.941,348.595 421.600,348.853 421.600 C 349.152 421.600,349.230 421.042,349.084 419.952 C 348.807 417.887,348.349 417.385,347.267 417.964 C 346.796 418.216,346.354 418.249,346.225 418.041 C 346.102 417.842,345.371 417.697,344.601 417.719 L 343.200 417.759 343.200 419.746 M296.167 418.243 C 297.141 418.616,296.917 419.200,295.800 419.200 C 294.829 419.200,294.523 418.811,295.067 418.267 C 295.391 417.942,295.384 417.942,296.167 418.243 M308.400 419.600 C 308.400 420.440,307.300 421.200,306.500 420.913 C 306.225 420.814,306.000 420.223,306.000 419.600 C 306.000 418.977,306.225 418.386,306.500 418.287 C 307.300 418.000,308.400 418.760,308.400 419.600 M322.320 418.480 C 323.389 419.549,322.299 421.414,320.900 420.913 C 319.814 420.523,320.392 418.208,321.620 418.032 C 321.741 418.014,322.056 418.216,322.320 418.480 M341.600 419.600 C 341.600 420.598,340.298 421.338,339.661 420.701 C 339.047 420.087,339.072 418.512,339.700 418.287 C 340.500 418.000,341.600 418.760,341.600 419.600 " stroke="none" fill="#f7f7f7" fill-rule="evenodd"></path><path id="path1" d="M0.000 216.200 L 0.000 432.400 200.000 432.400 L 400.000 432.400 400.000 216.200 L 400.000 0.000 200.000 0.000 L 0.000 0.000 0.000 216.200 M216.357 107.802 C 236.662 110.677,255.175 120.144,269.634 135.048 C 279.778 145.503,280.789 148.641,274.537 150.263 C 262.348 153.425,256.327 166.439,261.669 178.078 C 263.283 181.595,263.653 180.713,254.569 195.027 C 245.140 209.884,245.976 208.911,242.519 209.041 C 241.024 209.097,239.014 209.267,238.054 209.418 L 236.308 209.693 228.854 202.008 C 220.329 193.219,220.413 193.349,220.947 189.780 C 222.838 177.123,211.306 167.603,198.214 171.013 C 189.195 173.362,186.460 178.059,186.403 191.289 C 186.399 192.259,163.335 211.600,162.181 211.600 C 161.696 211.600,159.994 211.305,158.399 210.945 C 155.901 210.381,155.126 210.361,152.797 210.801 C 148.969 211.523,149.019 211.552,140.406 203.580 C 131.405 195.248,131.852 195.835,131.749 192.200 C 131.543 184.929,126.224 178.957,119.213 178.127 C 114.765 177.600,114.326 175.834,116.830 168.544 C 130.937 127.470,173.179 101.689,216.357 107.802 M192.186 114.229 C 164.264 118.029,139.275 136.111,126.998 161.400 C 123.722 168.148,122.441 171.680,123.180 171.927 C 131.614 174.738,138.400 183.301,138.400 191.133 C 138.400 192.708,138.561 192.898,144.553 198.395 L 150.705 204.040 156.150 204.120 L 161.595 204.200 170.598 196.633 L 179.600 189.066 179.600 186.512 C 179.600 173.204,189.560 163.787,203.600 163.820 C 217.820 163.853,227.606 173.380,227.663 187.245 L 227.680 191.491 233.140 196.931 L 238.600 202.372 240.496 202.086 L 242.392 201.800 248.983 191.484 L 255.574 181.168 254.324 177.484 C 250.471 166.127,255.577 152.633,265.934 146.800 C 267.302 146.030,268.694 145.216,269.029 144.992 C 269.531 144.655,268.999 143.904,265.976 140.683 C 247.089 120.559,219.182 110.554,192.186 114.229 M286.906 155.791 C 303.298 163.930,294.012 188.662,276.200 184.307 L 275.000 184.013 263.860 201.707 L 252.720 219.400 253.430 220.600 C 255.610 224.282,255.800 224.925,255.800 228.600 C 255.800 234.427,253.333 238.287,248.048 240.732 C 237.922 245.416,226.760 235.134,230.377 224.454 C 231.210 221.995,231.215 221.878,230.520 221.072 C 230.124 220.612,225.663 215.908,220.607 210.618 C 210.744 200.299,211.168 200.596,208.000 201.797 C 204.740 203.032,199.666 202.321,196.360 200.165 L 195.319 199.487 181.360 211.625 C 169.160 222.233,167.415 223.892,167.520 224.782 C 168.437 232.565,166.374 237.235,160.865 239.850 C 151.204 244.435,141.337 235.456,144.106 224.600 C 144.443 223.280,146.022 224.818,127.528 208.459 L 122.455 203.973 119.928 204.829 C 112.130 207.470,104.615 202.057,104.615 193.800 C 104.615 183.521,116.322 178.350,123.861 185.299 C 127.548 188.697,128.502 192.510,127.039 198.000 C 126.743 199.110,147.818 218.281,149.166 218.128 C 149.515 218.088,150.880 217.664,152.200 217.186 C 155.161 216.112,157.991 216.298,160.944 217.759 C 162.629 218.593,163.080 218.677,163.588 218.251 C 179.573 204.837,191.231 194.188,190.972 193.237 C 188.329 183.574,194.394 175.183,204.033 175.166 C 213.454 175.150,220.188 184.872,216.714 193.473 L 215.733 195.900 225.862 206.513 L 235.991 217.126 238.036 216.349 C 240.286 215.495,243.409 215.231,245.647 215.708 L 247.093 216.016 257.975 198.766 C 270.798 178.440,269.626 180.878,267.827 178.265 C 259.051 165.523,273.123 148.947,286.906 155.791 M277.554 161.352 C 268.389 164.627,270.545 177.999,280.252 178.086 C 288.263 178.158,291.969 167.990,285.789 162.895 C 283.371 160.902,280.380 160.342,277.554 161.352 M201.000 182.329 C 197.254 184.104,195.830 188.143,197.634 191.871 C 200.840 198.492,210.892 196.168,210.892 188.805 C 210.892 183.610,205.602 180.147,201.000 182.329 M293.936 188.932 C 295.727 190.838,296.075 204.523,294.591 214.657 C 286.678 268.686,233.793 304.017,180.943 290.582 C 146.686 281.873,120.164 253.869,113.433 219.297 C 111.604 209.905,111.887 209.287,118.163 208.983 L 122.043 208.796 124.122 210.714 C 125.265 211.770,128.720 214.943,131.800 217.766 C 139.923 225.211,139.322 224.357,138.999 228.010 C 137.401 246.067,160.992 253.548,170.166 237.894 C 171.524 235.577,172.501 230.954,172.166 228.431 C 171.799 225.660,171.709 225.759,184.167 215.249 C 197.849 203.706,196.428 204.561,200.566 205.382 C 202.905 205.846,204.480 205.941,206.027 205.710 C 209.468 205.197,209.463 205.194,217.481 213.521 C 226.220 222.596,226.240 222.624,225.637 225.020 C 222.917 235.821,230.903 246.583,242.039 247.125 C 255.179 247.764,264.317 234.928,259.426 222.702 C 257.847 218.756,256.892 220.726,271.743 197.310 C 275.487 191.407,274.834 191.851,280.200 191.569 C 284.835 191.325,287.980 190.370,289.433 188.763 C 290.437 187.655,292.820 187.744,293.936 188.932 M113.505 189.426 C 111.288 190.629,110.406 194.416,111.834 196.596 C 114.306 200.369,120.472 199.013,121.069 194.565 C 121.617 190.474,117.158 187.444,113.505 189.426 M286.822 197.479 C 285.844 197.762,283.636 198.112,281.915 198.255 L 278.785 198.516 274.450 205.358 C 272.066 209.121,269.076 213.875,267.804 215.922 L 265.492 219.643 266.166 221.722 C 269.580 232.249,265.459 243.968,256.230 249.981 C 239.543 260.852,217.313 247.769,218.541 227.800 L 218.762 224.200 212.993 218.360 L 207.223 212.520 202.698 212.297 L 198.174 212.074 188.587 220.155 L 179.000 228.236 178.760 231.434 C 177.995 241.662,170.693 250.243,160.765 252.584 C 146.564 255.931,132.400 244.795,132.400 230.284 L 132.400 227.283 126.100 221.472 C 122.635 218.276,119.742 215.822,119.671 216.018 C 119.019 217.819,123.502 231.916,126.974 238.980 C 147.862 281.478,199.000 298.891,241.389 277.937 C 270.350 263.622,289.479 232.926,288.723 201.982 L 288.600 196.964 286.822 197.479 M240.201 222.630 C 237.506 224.035,236.400 225.808,236.400 228.721 C 236.400 236.302,247.224 237.543,249.253 230.195 C 250.636 225.183,244.746 220.260,240.201 222.630 M152.759 224.108 C 150.942 225.322,149.907 227.382,150.143 229.315 C 150.996 236.308,161.205 235.788,161.199 228.753 C 161.195 224.349,156.372 221.695,152.759 224.108 M88.185 411.584 C 89.615 413.163,87.913 415.566,85.749 415.023 C 85.212 414.888,84.573 414.340,84.330 413.805 C 83.305 411.557,86.497 409.718,88.185 411.584 M86.728 411.623 C 87.420 411.900,87.591 412.198,87.401 412.797 C 87.254 413.259,87.328 413.600,87.573 413.600 C 88.152 413.600,88.115 412.275,87.520 411.680 C 87.256 411.416,86.761 411.211,86.420 411.225 C 86.052 411.240,86.177 411.402,86.728 411.623 M14.612 416.035 C 16.296 421.088,16.228 421.089,18.000 416.000 C 19.361 412.093,19.796 411.262,20.247 411.713 C 20.865 412.332,17.058 422.038,16.244 421.917 C 15.007 421.732,11.395 411.600,12.567 411.600 C 12.933 411.600,13.657 413.170,14.612 416.035 M35.600 412.800 C 35.600 413.733,35.778 414.000,36.400 414.000 C 36.840 414.000,37.200 414.180,37.200 414.400 C 37.200 414.620,36.840 414.800,36.400 414.800 C 35.356 414.800,35.184 419.957,36.200 420.800 C 36.960 421.431,36.971 422.000,36.223 422.000 C 34.891 422.000,34.400 420.359,34.400 415.911 C 34.400 412.346,34.504 411.600,35.000 411.600 C 35.400 411.600,35.600 412.000,35.600 412.800 M56.181 412.064 C 58.216 412.991,57.230 414.301,55.142 413.443 C 54.249 413.076,53.489 413.009,52.870 413.244 C 51.409 413.798,51.962 414.852,54.089 415.566 C 57.730 416.788,58.855 419.355,56.546 421.171 C 54.756 422.579,49.528 422.207,50.102 420.712 C 50.267 420.281,50.891 420.184,52.676 420.314 C 56.639 420.600,57.291 418.626,53.634 417.411 C 50.251 416.288,49.230 414.072,51.279 412.300 C 52.212 411.493,54.669 411.375,56.181 412.064 M60.400 412.800 C 60.400 413.790,60.563 414.000,61.333 414.000 C 61.896 414.000,62.267 414.238,62.267 414.600 C 62.267 414.962,61.896 415.200,61.333 415.200 C 59.858 415.200,59.911 419.834,61.392 420.397 C 62.622 420.864,62.334 422.000,60.986 422.000 C 59.088 422.000,58.400 420.337,58.400 415.746 L 58.400 411.600 59.400 411.600 C 60.244 411.600,60.400 411.787,60.400 412.800 M79.380 413.900 C 79.358 416.287,79.493 416.391,80.800 415.000 C 81.401 414.360,82.176 414.000,82.951 414.000 L 84.162 414.000 82.601 415.599 L 81.040 417.197 82.734 419.599 L 84.428 422.000 83.268 422.000 C 82.366 422.000,81.862 421.643,80.995 420.393 C 80.382 419.509,79.830 418.837,79.767 418.900 C 79.669 418.997,79.340 420.727,79.233 421.700 C 79.215 421.865,78.840 422.000,78.400 422.000 C 77.641 422.000,77.600 421.733,77.600 416.772 C 77.600 411.580,77.606 411.545,78.500 411.672 C 79.306 411.787,79.398 412.020,79.380 413.900 M84.800 412.976 C 84.800 413.293,84.980 413.664,85.200 413.800 C 85.420 413.936,85.600 413.677,85.600 413.224 C 85.600 412.771,85.420 412.400,85.200 412.400 C 84.980 412.400,84.800 412.659,84.800 412.976 M25.355 414.750 C 25.729 415.163,26.140 416.153,26.269 416.950 L 26.505 418.400 23.652 418.400 C 20.531 418.400,20.243 418.680,21.782 420.218 C 22.824 421.260,23.975 421.456,25.202 420.799 C 26.109 420.314,26.807 421.096,25.951 421.639 C 23.977 422.889,20.665 421.622,20.046 419.381 C 18.990 415.558,22.956 412.100,25.355 414.750 M33.106 414.711 C 33.232 415.094,32.878 415.158,31.681 414.967 C 29.560 414.627,28.400 415.700,28.400 418.000 C 28.400 420.259,29.563 421.364,31.646 421.085 C 32.813 420.928,33.200 421.016,33.200 421.438 C 33.200 422.661,29.396 422.148,28.236 420.769 C 25.871 417.959,27.643 413.851,31.121 414.080 C 32.147 414.148,33.011 414.422,33.106 414.711 M43.818 414.982 C 45.224 416.388,45.224 419.612,43.818 421.018 C 41.333 423.504,37.600 421.692,37.600 418.000 C 37.600 415.323,38.790 414.000,41.200 414.000 C 42.404 414.000,43.096 414.259,43.818 414.982 M46.800 414.414 C 46.800 414.690,47.078 414.679,47.631 414.383 C 48.088 414.139,48.763 414.057,49.131 414.202 C 49.658 414.409,49.482 414.630,48.300 415.242 L 46.800 416.019 46.800 419.010 C 46.800 420.737,46.631 422.000,46.400 422.000 C 46.160 422.000,46.000 420.400,46.000 418.000 C 46.000 415.600,46.160 414.000,46.400 414.000 C 46.620 414.000,46.800 414.186,46.800 414.414 M69.018 414.982 C 70.413 416.376,70.413 419.438,69.019 420.942 C 66.588 423.565,62.600 421.738,62.600 418.000 C 62.600 414.311,66.509 412.473,69.018 414.982 M76.600 414.800 C 76.600 415.221,76.087 415.437,74.881 415.524 C 71.482 415.769,71.423 420.021,74.813 420.400 C 77.265 420.674,77.303 421.749,74.867 421.925 C 70.895 422.210,68.892 416.878,72.116 414.598 C 73.274 413.779,76.600 413.929,76.600 414.800 M21.629 415.854 C 20.413 417.399,20.571 417.600,23.000 417.600 C 25.384 417.600,25.672 417.252,24.577 415.689 C 23.748 414.504,22.642 414.566,21.629 415.854 M39.600 415.600 C 37.918 417.282,39.006 421.200,41.156 421.200 C 43.618 421.200,44.828 417.162,42.847 415.557 C 41.644 414.583,40.603 414.597,39.600 415.600 M65.289 415.823 C 63.459 417.105,64.281 420.400,66.431 420.400 C 68.403 420.400,69.000 416.564,67.180 415.589 C 66.260 415.097,66.339 415.087,65.289 415.823 M352.400 416.072 C 352.400 417.259,350.588 422.000,350.134 422.000 C 349.854 422.000,349.695 421.775,349.781 421.500 C 351.494 416.015,352.400 414.137,352.400 416.072 M290.467 417.900 L 291.074 419.800 291.613 418.058 C 292.100 416.484,292.924 415.591,293.426 416.093 C 293.921 416.587,291.769 421.400,291.053 421.400 C 290.461 421.400,288.497 417.466,288.407 416.100 C 288.331 414.962,289.991 416.413,290.467 417.900 M316.000 416.600 C 315.890 416.820,315.440 417.000,315.000 417.000 C 313.754 417.000,313.778 417.723,315.048 418.424 C 316.353 419.145,316.728 420.430,315.845 421.162 C 315.097 421.784,312.719 421.576,312.487 420.869 C 312.360 420.483,312.671 420.373,313.617 420.469 C 315.289 420.637,315.649 419.751,314.141 419.177 C 313.522 418.942,312.914 418.584,312.788 418.381 C 312.333 417.644,310.800 419.218,310.800 420.423 C 310.800 421.203,310.597 421.600,310.200 421.600 C 309.747 421.600,309.600 421.111,309.600 419.600 C 309.600 417.609,309.606 417.600,310.904 417.600 C 311.787 417.600,312.374 417.334,312.722 416.777 C 313.261 415.913,316.429 415.742,316.000 416.600 M329.213 417.500 C 329.224 418.833,329.285 418.922,329.757 418.300 C 330.616 417.168,331.780 417.351,331.035 418.500 C 330.527 419.283,330.526 419.501,331.026 420.176 C 331.758 421.166,331.754 421.600,331.013 421.600 C 330.690 421.600,330.157 421.105,329.829 420.500 L 329.232 419.400 329.216 420.448 C 329.196 421.729,325.771 422.114,324.621 420.964 C 323.156 419.499,324.448 417.425,326.665 417.683 C 327.836 417.820,328.000 417.727,328.000 416.920 C 328.000 416.369,328.241 416.000,328.600 416.000 C 329.024 416.000,329.204 416.439,329.213 417.500 M356.656 416.601 C 357.050 417.628,356.467 419.029,355.411 419.594 C 354.004 420.347,354.150 420.800,355.800 420.800 C 356.570 420.800,357.200 420.980,357.200 421.200 C 357.200 421.420,356.319 421.600,355.243 421.600 C 352.702 421.600,352.379 420.852,354.221 419.235 C 354.980 418.569,355.600 417.850,355.600 417.636 C 355.600 416.972,354.792 416.709,354.218 417.185 C 353.605 417.694,352.974 417.089,353.400 416.400 C 353.797 415.757,356.393 415.918,356.656 416.601 M360.800 416.400 C 360.800 416.620,360.350 416.800,359.800 416.800 C 359.250 416.800,358.800 416.980,358.800 417.200 C 358.800 417.420,359.124 417.600,359.520 417.600 C 360.539 417.600,361.200 418.387,361.200 419.600 C 361.200 421.297,358.612 422.514,357.800 421.200 C 357.362 420.491,358.013 419.913,358.653 420.444 C 359.387 421.053,360.140 420.400,359.922 419.342 C 359.813 418.814,359.456 418.622,358.684 418.675 C 357.618 418.749,357.052 417.081,357.867 416.267 C 358.290 415.843,360.800 415.957,360.800 416.400 M365.120 416.480 C 365.800 417.160,365.715 419.657,364.977 420.711 C 364.254 421.744,361.864 422.019,362.246 421.025 C 362.367 420.709,362.692 420.537,362.969 420.643 C 363.246 420.750,363.703 420.558,363.985 420.218 C 364.417 419.697,364.377 419.600,363.729 419.600 C 362.338 419.600,361.300 417.234,362.267 416.267 C 362.709 415.825,364.607 415.967,365.120 416.480 M369.600 416.400 C 369.600 416.620,369.150 416.800,368.600 416.800 C 368.050 416.800,367.600 416.980,367.600 417.200 C 367.600 417.420,367.924 417.600,368.320 417.600 C 369.339 417.600,370.000 418.387,370.000 419.600 C 370.000 421.297,367.412 422.514,366.600 421.200 C 366.162 420.491,366.813 419.913,367.453 420.444 C 368.187 421.053,368.940 420.400,368.722 419.342 C 368.613 418.814,368.256 418.622,367.484 418.675 C 366.418 418.749,365.852 417.081,366.667 416.267 C 367.090 415.843,369.600 415.957,369.600 416.400 M373.986 416.774 C 375.166 418.978,373.862 421.788,371.788 421.512 L 370.600 421.354 371.661 420.902 C 373.011 420.326,373.481 419.600,372.504 419.600 C 371.135 419.600,370.110 417.223,371.067 416.267 C 371.651 415.683,373.582 416.018,373.986 416.774 M378.481 418.100 C 378.567 419.255,378.564 420.515,378.473 420.900 C 378.270 421.755,377.600 421.832,377.600 421.000 C 377.600 420.600,377.200 420.400,376.400 420.400 C 374.936 420.400,374.907 419.971,376.217 417.735 C 377.605 415.366,378.283 415.476,378.481 418.100 M383.600 416.269 C 383.600 416.416,383.289 416.881,382.908 417.301 C 382.253 418.026,382.253 418.086,382.908 418.453 C 383.748 418.923,383.816 420.523,383.024 421.180 C 382.285 421.793,380.317 421.569,380.079 420.844 C 379.942 420.427,380.149 420.351,380.902 420.540 C 382.425 420.922,383.257 419.754,381.843 419.217 C 380.622 418.752,380.569 418.518,381.462 417.531 C 382.088 416.840,382.066 416.800,381.062 416.800 C 380.478 416.800,380.000 416.620,380.000 416.400 C 380.000 416.180,380.810 416.000,381.800 416.000 C 382.790 416.000,383.600 416.121,383.600 416.269 M387.920 416.480 C 389.346 417.906,388.249 421.600,386.400 421.600 C 384.906 421.600,384.400 420.892,384.400 418.800 C 384.400 416.708,384.906 416.000,386.400 416.000 C 386.972 416.000,387.656 416.216,387.920 416.480 M303.925 417.468 C 304.411 417.954,304.457 418.181,304.096 418.301 C 303.396 418.535,303.477 420.378,304.200 420.655 C 305.130 421.012,304.908 421.600,303.843 421.600 C 302.838 421.600,302.400 420.941,302.400 419.432 C 302.400 418.301,299.845 417.984,299.431 419.064 C 299.057 420.038,299.984 420.891,301.109 420.608 C 301.798 420.435,302.029 420.515,301.908 420.883 C 301.650 421.670,299.404 421.747,298.650 420.993 C 297.083 419.426,298.444 417.393,300.845 417.715 C 301.905 417.858,302.409 417.753,302.561 417.358 C 302.839 416.632,303.111 416.654,303.925 417.468 M318.325 417.468 C 318.811 417.954,318.857 418.181,318.496 418.301 C 317.796 418.535,317.877 420.378,318.600 420.655 C 319.446 420.980,319.347 421.600,318.449 421.600 C 317.454 421.600,316.959 420.910,316.688 419.147 C 316.376 417.107,317.159 416.302,318.325 417.468 M362.989 417.218 C 362.614 417.824,363.630 418.930,364.116 418.444 C 364.565 417.995,364.216 416.800,363.636 416.800 C 363.422 416.800,363.131 416.988,362.989 417.218 M371.789 417.218 C 371.414 417.824,372.430 418.930,372.916 418.444 C 373.365 417.995,373.016 416.800,372.436 416.800 C 372.222 416.800,371.931 416.988,371.789 417.218 M385.527 417.800 C 385.033 418.884,385.592 420.800,386.401 420.800 C 386.631 420.800,386.991 420.350,387.200 419.800 C 387.617 418.702,387.111 416.800,386.401 416.800 C 386.171 416.800,385.778 417.250,385.527 417.800 M297.357 418.233 C 297.800 419.387,297.613 419.600,296.151 419.600 C 294.913 419.600,294.774 419.687,295.197 420.196 C 295.521 420.586,296.039 420.705,296.698 420.540 C 297.451 420.351,297.658 420.427,297.521 420.844 C 296.978 422.497,293.600 421.297,293.600 419.451 C 293.600 417.717,296.765 416.690,297.357 418.233 M308.720 418.080 C 309.999 419.359,308.998 421.600,307.149 421.600 C 305.888 421.600,304.800 420.674,304.800 419.600 C 304.800 417.946,307.528 416.888,308.720 418.080 M323.120 418.080 C 324.359 419.319,323.407 421.600,321.651 421.600 C 320.466 421.600,319.200 420.550,319.200 419.567 C 319.200 417.942,321.942 416.902,323.120 418.080 M337.682 418.200 C 337.616 418.420,337.144 418.545,336.633 418.478 C 336.049 418.402,335.606 418.607,335.444 419.029 C 335.059 420.033,335.967 420.895,337.109 420.608 C 337.799 420.435,338.029 420.515,337.908 420.883 C 337.642 421.692,335.625 421.747,334.765 420.968 C 333.198 419.550,334.331 417.463,336.550 417.678 C 337.238 417.745,337.747 417.980,337.682 418.200 M341.920 418.080 C 343.159 419.319,342.207 421.600,340.451 421.600 C 339.266 421.600,338.000 420.550,338.000 419.567 C 338.000 417.942,340.742 416.902,341.920 418.080 M349.122 419.700 C 349.218 421.204,349.114 421.600,348.622 421.600 C 348.163 421.600,348.000 421.181,348.000 420.000 C 348.000 418.384,347.490 417.868,347.043 419.033 C 346.909 419.381,346.800 420.101,346.800 420.633 C 346.800 421.226,346.568 421.600,346.200 421.600 C 345.767 421.600,345.600 421.156,345.600 420.000 C 345.600 419.120,345.456 418.400,345.280 418.400 C 344.616 418.400,344.000 419.400,344.000 420.480 C 344.000 421.203,343.790 421.600,343.407 421.600 C 342.958 421.600,342.825 421.125,342.859 419.638 L 342.903 417.677 345.951 417.738 L 349.000 417.800 349.122 419.700 M376.637 418.600 C 376.012 419.553,376.020 419.600,376.791 419.600 C 377.387 419.600,377.600 419.337,377.600 418.600 C 377.600 418.050,377.531 417.600,377.446 417.600 C 377.361 417.600,376.997 418.050,376.637 418.600 M306.263 418.980 C 305.912 419.894,306.405 420.858,307.150 420.714 C 307.541 420.639,307.800 420.195,307.800 419.600 C 307.800 418.474,306.637 418.005,306.263 418.980 M320.663 418.980 C 320.312 419.894,320.805 420.858,321.550 420.714 C 321.941 420.639,322.200 420.195,322.200 419.600 C 322.200 418.474,321.037 418.005,320.663 418.980 M325.429 419.068 C 325.286 419.441,325.425 419.997,325.741 420.312 C 326.552 421.123,328.000 420.576,328.000 419.458 C 328.000 418.321,325.842 417.994,325.429 419.068 M339.463 418.980 C 339.112 419.894,339.605 420.858,340.350 420.714 C 340.741 420.639,341.000 420.195,341.000 419.600 C 341.000 418.474,339.837 418.005,339.463 418.980 M333.200 421.200 C 333.200 421.420,332.930 421.600,332.600 421.600 C 332.270 421.600,332.000 421.420,332.000 421.200 C 332.000 420.980,332.270 420.800,332.600 420.800 C 332.930 420.800,333.200 420.980,333.200 421.200 " stroke="none" fill="#050506" fill-rule="evenodd"></path><path id="path2" d="M201.100 107.096 C 202.475 107.174,204.725 107.174,206.100 107.096 C 207.475 107.018,206.350 106.954,203.600 106.954 C 200.850 106.954,199.725 107.018,201.100 107.096 M201.100 113.496 C 202.475 113.574,204.725 113.574,206.100 113.496 C 207.475 113.418,206.350 113.354,203.600 113.354 C 200.850 113.354,199.725 113.418,201.100 113.496 M264.000 138.600 C 265.195 139.810,266.263 140.800,266.373 140.800 C 266.483 140.800,265.595 139.810,264.400 138.600 C 263.205 137.390,262.137 136.400,262.027 136.400 C 261.917 136.400,262.805 137.390,264.000 138.600 M142.981 138.500 L 141.400 140.200 143.100 138.619 C 144.681 137.148,144.984 136.800,144.681 136.800 C 144.616 136.800,143.851 137.565,142.981 138.500 M260.575 150.900 L 259.400 152.200 260.700 151.025 C 261.415 150.379,262.000 149.794,262.000 149.725 C 262.000 149.416,261.670 149.688,260.575 150.900 M265.381 155.300 L 263.800 157.000 265.500 155.419 C 267.081 153.948,267.384 153.600,267.081 153.600 C 267.016 153.600,266.251 154.365,265.381 155.300 M269.375 158.900 L 268.200 160.200 269.500 159.025 C 270.215 158.379,270.800 157.794,270.800 157.725 C 270.800 157.416,270.470 157.688,269.375 158.900 M201.891 163.889 C 202.601 163.977,203.861 163.979,204.691 163.892 C 205.521 163.805,204.940 163.733,203.400 163.731 C 201.860 163.729,201.181 163.800,201.891 163.889 M252.914 169.400 C 252.917 170.500,252.995 170.903,253.087 170.295 C 253.179 169.686,253.177 168.786,253.082 168.295 C 252.987 167.803,252.911 168.300,252.914 169.400 M288.914 169.400 C 288.917 170.500,288.995 170.903,289.087 170.295 C 289.179 169.686,289.177 168.786,289.082 168.295 C 288.987 167.803,288.911 168.300,288.914 169.400 M202.505 170.287 C 203.114 170.379,204.014 170.377,204.505 170.282 C 204.997 170.187,204.500 170.111,203.400 170.114 C 202.300 170.117,201.897 170.195,202.505 170.287 M190.175 175.300 L 189.000 176.600 190.300 175.425 C 191.512 174.330,191.784 174.000,191.475 174.000 C 191.406 174.000,190.821 174.585,190.175 175.300 M212.400 178.125 C 212.400 178.194,212.985 178.779,213.700 179.425 L 215.000 180.600 213.825 179.300 C 212.730 178.088,212.400 177.816,212.400 178.125 M115.100 182.282 C 115.595 182.378,116.405 182.378,116.900 182.282 C 117.395 182.187,116.990 182.109,116.000 182.109 C 115.010 182.109,114.605 182.187,115.100 182.282 M186.124 186.600 C 186.126 187.920,186.201 188.412,186.290 187.693 C 186.379 186.974,186.377 185.894,186.286 185.293 C 186.195 184.692,186.122 185.280,186.124 186.600 M184.975 192.900 L 183.800 194.200 185.100 193.025 C 186.312 191.930,186.584 191.600,186.275 191.600 C 186.206 191.600,185.621 192.185,184.975 192.900 M279.700 191.876 C 280.085 191.976,280.715 191.976,281.100 191.876 C 281.485 191.775,281.170 191.693,280.400 191.693 C 279.630 191.693,279.315 191.775,279.700 191.876 M223.200 196.200 C 224.395 197.410,225.463 198.400,225.573 198.400 C 225.683 198.400,224.795 197.410,223.600 196.200 C 222.405 194.990,221.337 194.000,221.227 194.000 C 221.117 194.000,222.005 194.990,223.200 196.200 M217.800 198.400 C 219.106 199.720,220.265 200.800,220.375 200.800 C 220.485 200.800,219.506 199.720,218.200 198.400 C 216.894 197.080,215.735 196.000,215.625 196.000 C 215.515 196.000,216.494 197.080,217.800 198.400 M295.309 198.000 C 295.309 198.990,295.387 199.395,295.482 198.900 C 295.578 198.405,295.578 197.595,295.482 197.100 C 295.387 196.605,295.309 197.010,295.309 198.000 M142.800 196.925 C 142.800 196.994,143.385 197.579,144.100 198.225 L 145.400 199.400 144.225 198.100 C 143.130 196.888,142.800 196.616,142.800 196.925 M235.400 199.600 C 236.928 201.140,238.269 202.400,238.379 202.400 C 238.489 202.400,237.328 201.140,235.800 199.600 C 234.272 198.060,232.931 196.800,232.821 196.800 C 232.711 196.800,233.872 198.060,235.400 199.600 M288.955 201.800 C 288.956 204.660,289.020 205.778,289.097 204.283 C 289.174 202.789,289.174 200.449,289.096 199.083 C 289.018 197.718,288.955 198.940,288.955 201.800 M278.657 198.307 C 278.553 198.476,279.217 198.557,280.134 198.486 C 282.825 198.279,283.153 198.096,280.924 198.046 C 279.782 198.021,278.762 198.138,278.657 198.307 M138.000 201.400 C 138.746 202.170,139.447 202.800,139.557 202.800 C 139.667 202.800,139.146 202.170,138.400 201.400 C 137.654 200.630,136.953 200.000,136.843 200.000 C 136.733 200.000,137.254 200.630,138.000 201.400 M148.800 202.600 C 149.546 203.370,150.247 204.000,150.357 204.000 C 150.467 204.000,149.946 203.370,149.200 202.600 C 148.454 201.830,147.753 201.200,147.643 201.200 C 147.533 201.200,148.054 201.830,148.800 202.600 M240.100 202.276 C 240.485 202.376,241.115 202.376,241.500 202.276 C 241.885 202.175,241.570 202.093,240.800 202.093 C 240.030 202.093,239.715 202.175,240.100 202.276 M215.000 204.800 C 216.306 206.120,217.465 207.200,217.575 207.200 C 217.685 207.200,216.706 206.120,215.400 204.800 C 214.094 203.480,212.935 202.400,212.825 202.400 C 212.715 202.400,213.694 203.480,215.000 204.800 M295.314 205.000 C 295.317 206.100,295.395 206.503,295.487 205.895 C 295.579 205.286,295.577 204.386,295.482 203.895 C 295.387 203.403,295.311 203.900,295.314 205.000 M233.200 206.600 C 234.617 208.030,235.867 209.200,235.977 209.200 C 236.087 209.200,235.017 208.030,233.600 206.600 C 232.183 205.170,230.933 204.000,230.823 204.000 C 230.713 204.000,231.783 205.170,233.200 206.600 M143.200 206.200 C 143.946 206.970,144.647 207.600,144.757 207.600 C 144.867 207.600,144.346 206.970,143.600 206.200 C 142.854 205.430,142.153 204.800,142.043 204.800 C 141.933 204.800,142.454 205.430,143.200 206.200 M226.200 207.200 C 227.506 208.520,228.665 209.600,228.775 209.600 C 228.885 209.600,227.906 208.520,226.600 207.200 C 225.294 205.880,224.135 204.800,224.025 204.800 C 223.915 204.800,224.894 205.880,226.200 207.200 M114.900 205.487 C 115.505 205.578,116.495 205.578,117.100 205.487 C 117.705 205.395,117.210 205.320,116.000 205.320 C 114.790 205.320,114.295 205.395,114.900 205.487 M212.600 208.800 C 214.350 210.560,215.871 212.000,215.981 212.000 C 216.091 212.000,214.750 210.560,213.000 208.800 C 211.250 207.040,209.729 205.600,209.619 205.600 C 209.509 205.600,210.850 207.040,212.600 208.800 M223.400 213.600 C 224.706 214.920,225.865 216.000,225.975 216.000 C 226.085 216.000,225.106 214.920,223.800 213.600 C 222.494 212.280,221.335 211.200,221.225 211.200 C 221.115 211.200,222.094 212.280,223.400 213.600 M127.600 214.200 C 128.346 214.970,129.047 215.600,129.157 215.600 C 129.267 215.600,128.746 214.970,128.000 214.200 C 127.254 213.430,126.553 212.800,126.443 212.800 C 126.333 212.800,126.854 213.430,127.600 214.200 M211.000 216.400 C 212.750 218.160,214.271 219.600,214.381 219.600 C 214.491 219.600,213.150 218.160,211.400 216.400 C 209.650 214.640,208.129 213.200,208.019 213.200 C 207.909 213.200,209.250 214.640,211.000 216.400 M233.983 215.300 C 235.641 217.066,236.000 217.384,236.000 217.083 C 236.000 217.019,235.145 216.164,234.100 215.183 L 232.200 213.400 233.983 215.300 M121.600 217.400 C 122.346 218.170,123.047 218.800,123.157 218.800 C 123.267 218.800,122.746 218.170,122.000 217.400 C 121.254 216.630,120.553 216.000,120.443 216.000 C 120.333 216.000,120.854 216.630,121.600 217.400 M154.905 216.687 C 155.514 216.779,156.414 216.777,156.905 216.682 C 157.397 216.587,156.900 216.511,155.800 216.514 C 154.700 216.517,154.297 216.595,154.905 216.687 M132.800 219.000 C 133.546 219.770,134.247 220.400,134.357 220.400 C 134.467 220.400,133.946 219.770,133.200 219.000 C 132.454 218.230,131.753 217.600,131.643 217.600 C 131.533 217.600,132.054 218.230,132.800 219.000 M223.183 219.700 C 224.164 220.745,225.019 221.600,225.083 221.600 C 225.384 221.600,225.066 221.241,223.300 219.583 L 221.400 217.800 223.183 219.700 M230.434 221.047 C 230.965 221.733,231.480 222.223,231.579 222.135 C 231.677 222.047,231.243 221.486,230.613 220.888 L 229.469 219.800 230.434 221.047 M126.800 222.200 C 127.546 222.970,128.247 223.600,128.357 223.600 C 128.467 223.600,127.946 222.970,127.200 222.200 C 126.454 221.430,125.753 220.800,125.643 220.800 C 125.533 220.800,126.054 221.430,126.800 222.200 M246.400 222.925 C 246.400 222.994,246.985 223.579,247.700 224.225 L 249.000 225.400 247.825 224.100 C 246.730 222.888,246.400 222.616,246.400 222.925 M172.101 227.400 C 172.105 228.280,172.187 228.593,172.283 228.095 C 172.379 227.598,172.375 226.878,172.275 226.495 C 172.175 226.113,172.096 226.520,172.101 227.400 M218.537 229.400 C 218.539 231.160,218.609 231.830,218.693 230.889 C 218.778 229.949,218.777 228.509,218.691 227.689 C 218.605 226.870,218.536 227.640,218.537 229.400 M229.724 228.600 C 229.726 229.920,229.801 230.412,229.890 229.693 C 229.979 228.974,229.977 227.894,229.886 227.293 C 229.795 226.692,229.722 227.280,229.724 228.600 M167.720 228.800 C 167.720 230.010,167.795 230.505,167.887 229.900 C 167.978 229.295,167.978 228.305,167.887 227.700 C 167.795 227.095,167.720 227.590,167.720 228.800 M224.920 229.600 C 224.920 230.810,224.995 231.305,225.087 230.700 C 225.178 230.095,225.178 229.105,225.087 228.500 C 224.995 227.895,224.920 228.390,224.920 229.600 M236.093 228.800 C 236.093 229.570,236.175 229.885,236.276 229.500 C 236.376 229.115,236.376 228.485,236.276 228.100 C 236.175 227.715,236.093 228.030,236.093 228.800 M267.293 229.600 C 267.293 230.370,267.375 230.685,267.476 230.300 C 267.576 229.915,267.576 229.285,267.476 228.900 C 267.375 228.515,267.293 228.830,267.293 229.600 M163.978 237.500 L 162.600 239.000 164.100 237.622 C 165.496 236.338,165.784 236.000,165.478 236.000 C 165.412 236.000,164.737 236.675,163.978 237.500 M251.978 237.900 L 250.600 239.400 252.100 238.022 C 253.496 236.738,253.784 236.400,253.478 236.400 C 253.412 236.400,252.737 237.075,251.978 237.900 M142.400 240.525 C 142.400 240.594,142.985 241.179,143.700 241.825 L 145.000 243.000 143.825 241.700 C 142.730 240.488,142.400 240.216,142.400 240.525 M154.900 241.076 C 155.285 241.176,155.915 241.176,156.300 241.076 C 156.685 240.975,156.370 240.893,155.600 240.893 C 154.830 240.893,154.515 240.975,154.900 241.076 M241.900 241.882 C 242.395 241.978,243.205 241.978,243.700 241.882 C 244.195 241.787,243.790 241.709,242.800 241.709 C 241.810 241.709,241.405 241.787,241.900 241.882 M225.400 246.400 C 226.483 247.500,227.460 248.400,227.570 248.400 C 227.680 248.400,226.883 247.500,225.800 246.400 C 224.717 245.300,223.740 244.400,223.630 244.400 C 223.520 244.400,224.317 245.300,225.400 246.400 M259.785 246.900 L 257.800 249.000 259.900 247.015 C 261.055 245.923,262.000 244.978,262.000 244.915 C 262.000 244.617,261.629 244.949,259.785 246.900 M154.300 246.689 C 155.015 246.778,156.185 246.778,156.900 246.689 C 157.615 246.601,157.030 246.528,155.600 246.528 C 154.170 246.528,153.585 246.601,154.300 246.689 M241.907 247.490 C 242.626 247.579,243.706 247.577,244.307 247.486 C 244.908 247.395,244.320 247.322,243.000 247.324 C 241.680 247.326,241.188 247.401,241.907 247.490 M142.783 261.700 C 144.441 263.466,144.800 263.784,144.800 263.483 C 144.800 263.419,143.945 262.564,142.900 261.583 L 141.000 259.800 142.783 261.700 M195.300 286.676 C 195.685 286.776,196.315 286.776,196.700 286.676 C 197.085 286.575,196.770 286.493,196.000 286.493 C 195.230 286.493,194.915 286.575,195.300 286.676 M210.500 286.676 C 210.885 286.776,211.515 286.776,211.900 286.676 C 212.285 286.575,211.970 286.493,211.200 286.493 C 210.430 286.493,210.115 286.575,210.500 286.676 M201.900 287.093 C 202.835 287.177,204.365 287.177,205.300 287.093 C 206.235 287.009,205.470 286.940,203.600 286.940 C 201.730 286.940,200.965 287.009,201.900 287.093 M201.513 293.495 C 202.676 293.576,204.476 293.576,205.513 293.493 C 206.551 293.411,205.600 293.345,203.400 293.346 C 201.200 293.347,200.351 293.414,201.513 293.495 M85.355 411.127 C 85.466 411.307,85.207 411.707,84.779 412.015 C 84.350 412.324,84.000 412.852,84.000 413.188 C 84.001 413.592,84.338 413.408,84.992 412.648 C 85.848 411.653,86.014 410.800,85.353 410.800 C 85.243 410.800,85.244 410.947,85.355 411.127 M58.550 415.800 C 58.551 418.220,58.616 419.158,58.696 417.885 C 58.776 416.612,58.775 414.632,58.694 413.485 C 58.614 412.338,58.549 413.380,58.550 415.800 M60.093 412.800 C 60.093 413.570,60.175 413.885,60.276 413.500 C 60.376 413.115,60.376 412.485,60.276 412.100 C 60.175 411.715,60.093 412.030,60.093 412.800 M86.000 412.180 C 86.000 412.332,86.254 412.711,86.564 413.022 C 86.875 413.332,87.053 413.994,86.960 414.493 C 86.867 414.992,86.898 415.174,87.030 414.898 C 87.161 414.621,87.421 414.489,87.607 414.604 C 87.793 414.719,88.059 414.629,88.198 414.404 C 88.337 414.179,88.164 413.884,87.813 413.750 C 87.400 413.591,87.249 413.206,87.384 412.653 C 87.499 412.184,87.487 412.033,87.357 412.317 C 87.177 412.713,86.992 412.725,86.561 412.368 C 86.252 412.112,86.000 412.027,86.000 412.180 M86.000 413.551 C 86.000 413.817,85.770 413.982,85.488 413.918 C 85.207 413.853,84.955 413.980,84.928 414.200 C 84.902 414.420,85.042 414.555,85.240 414.500 C 85.438 414.445,85.611 414.625,85.625 414.900 C 85.639 415.175,85.823 414.969,86.034 414.442 C 86.245 413.915,86.323 413.390,86.209 413.275 C 86.094 413.161,86.000 413.285,86.000 413.551 M68.884 415.003 C 69.040 415.245,69.344 415.883,69.559 416.422 C 69.806 417.040,69.959 417.159,69.975 416.744 C 69.989 416.384,69.685 415.745,69.300 415.325 C 68.915 414.906,68.728 414.760,68.884 415.003 M60.124 417.400 C 60.126 418.720,60.201 419.212,60.290 418.493 C 60.379 417.774,60.377 416.694,60.286 416.093 C 60.195 415.492,60.122 416.080,60.124 417.400 M312.555 417.012 C 312.190 417.569,311.987 418.121,312.104 418.237 C 312.221 418.354,312.592 417.899,312.928 417.225 C 313.668 415.740,313.465 415.624,312.555 417.012 M328.000 418.167 C 328.000 419.358,327.838 420.393,327.639 420.467 C 327.441 420.540,327.531 420.832,327.839 421.116 C 328.316 421.554,328.400 421.209,328.400 418.816 C 328.400 417.267,328.310 416.000,328.200 416.000 C 328.090 416.000,328.000 416.975,328.000 418.167 M316.667 417.500 C 316.567 417.665,316.631 418.520,316.808 419.400 L 317.131 421.000 317.065 419.100 C 316.997 417.126,316.966 417.002,316.667 417.500 M294.080 418.080 C 293.816 418.344,293.625 419.019,293.654 419.580 L 293.709 420.600 293.893 419.600 C 293.994 419.050,294.261 418.375,294.487 418.100 C 295.011 417.462,294.713 417.447,294.080 418.080 M309.720 419.600 C 309.720 420.810,309.795 421.305,309.887 420.700 C 309.978 420.095,309.978 419.105,309.887 418.500 C 309.795 417.895,309.720 418.390,309.720 419.600 M302.368 419.500 C 302.559 420.881,302.587 420.909,302.719 419.851 C 302.798 419.219,302.705 418.545,302.512 418.352 C 302.310 418.150,302.249 418.640,302.368 419.500 M79.200 419.400 C 79.200 419.950,79.269 420.400,79.353 420.400 C 79.438 420.400,79.593 419.950,79.698 419.400 C 79.803 418.850,79.734 418.400,79.545 418.400 C 79.355 418.400,79.200 418.850,79.200 419.400 M348.109 420.000 C 348.109 420.990,348.187 421.395,348.282 420.900 C 348.378 420.405,348.378 419.595,348.282 419.100 C 348.187 418.605,348.109 419.010,348.109 420.000 M338.032 419.467 C 338.014 419.943,337.775 420.424,337.500 420.535 C 337.108 420.693,337.111 420.744,337.513 420.768 C 338.120 420.806,338.561 419.840,338.269 419.113 C 338.156 418.831,338.049 418.990,338.032 419.467 M345.701 420.200 C 345.705 421.080,345.787 421.393,345.883 420.895 C 345.979 420.398,345.975 419.678,345.875 419.295 C 345.775 418.913,345.696 419.320,345.701 420.200 M342.893 420.400 C 342.893 421.170,342.975 421.485,343.076 421.100 C 343.176 420.715,343.176 420.085,343.076 419.700 C 342.975 419.315,342.893 419.630,342.893 420.400 " stroke="none" fill="#5c5c5e" fill-rule="evenodd"></path><path id="path3" d="M279.505 184.683 C 280.002 184.779,280.722 184.775,281.105 184.675 C 281.487 184.575,281.080 184.496,280.200 184.501 C 279.320 184.505,279.007 184.587,279.505 184.683 M179.693 186.400 C 179.693 187.170,179.775 187.485,179.876 187.100 C 179.976 186.715,179.976 186.085,179.876 185.700 C 179.775 185.315,179.693 185.630,179.693 186.400 M230.400 194.525 C 230.400 194.594,230.985 195.179,231.700 195.825 L 233.000 197.000 231.825 195.700 C 230.730 194.488,230.400 194.216,230.400 194.525 M225.600 198.525 C 225.600 198.594,226.185 199.179,226.900 199.825 L 228.200 201.000 227.025 199.700 C 225.930 198.488,225.600 198.216,225.600 198.525 M295.314 201.400 C 295.317 202.500,295.395 202.903,295.487 202.295 C 295.579 201.686,295.577 200.786,295.482 200.295 C 295.387 199.803,295.311 200.300,295.314 201.400 M219.200 215.725 C 219.200 215.794,219.785 216.379,220.500 217.025 L 221.800 218.200 220.625 216.900 C 219.530 215.688,219.200 215.416,219.200 215.725 M214.400 219.725 C 214.400 219.794,214.985 220.379,215.700 221.025 L 217.000 222.200 215.825 220.900 C 214.730 219.688,214.400 219.416,214.400 219.725 M154.700 253.082 C 155.195 253.178,156.005 253.178,156.500 253.082 C 156.995 252.987,156.590 252.909,155.600 252.909 C 154.610 252.909,154.205 252.987,154.700 253.082 M263.785 262.100 L 261.800 264.200 263.900 262.215 C 265.055 261.123,266.000 260.178,266.000 260.115 C 266.000 259.817,265.629 260.149,263.785 262.100 M35.324 417.000 C 35.326 418.320,35.401 418.812,35.490 418.093 C 35.579 417.374,35.577 416.294,35.486 415.693 C 35.395 415.092,35.322 415.680,35.324 417.000 " stroke="none" fill="#7b7c7d" fill-rule="evenodd"></path><path id="path4" d="M138.788 133.900 L 136.200 136.600 138.900 134.012 C 140.385 132.588,141.600 131.373,141.600 131.312 C 141.600 131.017,141.193 131.392,138.788 133.900 M268.000 133.800 C 269.195 135.010,270.263 136.000,270.373 136.000 C 270.483 136.000,269.595 135.010,268.400 133.800 C 267.205 132.590,266.137 131.600,266.027 131.600 C 265.917 131.600,266.805 132.590,268.000 133.800 M260.985 150.900 L 259.000 153.000 261.100 151.015 C 263.051 149.171,263.383 148.800,263.085 148.800 C 263.022 148.800,262.077 149.745,260.985 150.900 M279.107 154.690 C 279.826 154.779,280.906 154.777,281.507 154.686 C 282.108 154.595,281.520 154.522,280.200 154.524 C 278.880 154.526,278.388 154.601,279.107 154.690 M279.500 160.682 C 279.995 160.778,280.805 160.778,281.300 160.682 C 281.795 160.587,281.390 160.509,280.400 160.509 C 279.410 160.509,279.005 160.587,279.500 160.682 M265.320 169.600 C 265.320 170.810,265.395 171.305,265.487 170.700 C 265.578 170.095,265.578 169.105,265.487 168.500 C 265.395 167.895,265.320 168.390,265.320 169.600 M271.309 169.600 C 271.309 170.590,271.387 170.995,271.482 170.500 C 271.578 170.005,271.578 169.195,271.482 168.700 C 271.387 168.205,271.309 168.610,271.309 169.600 M185.978 170.700 L 184.600 172.200 186.100 170.822 C 186.925 170.063,187.600 169.388,187.600 169.322 C 187.600 169.016,187.262 169.304,185.978 170.700 M216.800 175.400 C 217.546 176.170,218.247 176.800,218.357 176.800 C 218.467 176.800,217.946 176.170,217.200 175.400 C 216.454 174.630,215.753 174.000,215.643 174.000 C 215.533 174.000,216.054 174.630,216.800 175.400 M202.707 175.490 C 203.426 175.579,204.506 175.577,205.107 175.486 C 205.708 175.395,205.120 175.322,203.800 175.324 C 202.480 175.326,201.988 175.401,202.707 175.490 M130.800 176.525 C 130.800 176.594,131.385 177.179,132.100 177.825 L 133.400 179.000 132.225 177.700 C 131.130 176.488,130.800 176.216,130.800 176.525 M227.340 187.200 C 227.340 189.070,227.409 189.835,227.493 188.900 C 227.577 187.965,227.577 186.435,227.493 185.500 C 227.409 184.565,227.340 185.330,227.340 187.200 M190.524 188.600 C 190.526 189.920,190.601 190.412,190.690 189.693 C 190.779 188.974,190.777 187.894,190.686 187.293 C 190.595 186.692,190.522 187.280,190.524 188.600 M228.600 192.800 C 229.459 193.680,230.252 194.400,230.362 194.400 C 230.472 194.400,229.859 193.680,229.000 192.800 C 228.141 191.920,227.348 191.200,227.238 191.200 C 227.128 191.200,227.741 191.920,228.600 192.800 M121.301 193.800 C 121.305 194.680,121.387 194.993,121.483 194.495 C 121.579 193.998,121.575 193.278,121.475 192.895 C 121.375 192.513,121.296 192.920,121.301 193.800 M142.400 197.000 C 143.146 197.770,143.847 198.400,143.957 198.400 C 144.067 198.400,143.546 197.770,142.800 197.000 C 142.054 196.230,141.353 195.600,141.243 195.600 C 141.133 195.600,141.654 196.230,142.400 197.000 M134.400 197.800 C 135.146 198.570,135.847 199.200,135.957 199.200 C 136.067 199.200,135.546 198.570,134.800 197.800 C 134.054 197.030,133.353 196.400,133.243 196.400 C 133.133 196.400,133.654 197.030,134.400 197.800 M219.800 200.800 C 221.106 202.120,222.265 203.200,222.375 203.200 C 222.485 203.200,221.506 202.120,220.200 200.800 C 218.894 199.480,217.735 198.400,217.625 198.400 C 217.515 198.400,218.494 199.480,219.800 200.800 M236.600 201.200 C 237.459 202.080,238.252 202.800,238.362 202.800 C 238.472 202.800,237.859 202.080,237.000 201.200 C 236.141 200.320,235.348 199.600,235.238 199.600 C 235.128 199.600,235.741 200.320,236.600 201.200 M213.200 202.600 C 214.617 204.030,215.867 205.200,215.977 205.200 C 216.087 205.200,215.017 204.030,213.600 202.600 C 212.183 201.170,210.933 200.000,210.823 200.000 C 210.713 200.000,211.783 201.170,213.200 202.600 M147.600 201.800 C 148.346 202.570,149.047 203.200,149.157 203.200 C 149.267 203.200,148.746 202.570,148.000 201.800 C 147.254 201.030,146.553 200.400,146.443 200.400 C 146.333 200.400,146.854 201.030,147.600 201.800 M231.000 204.000 C 232.750 205.760,234.271 207.200,234.381 207.200 C 234.491 207.200,233.150 205.760,231.400 204.000 C 229.650 202.240,228.129 200.800,228.019 200.800 C 227.909 200.800,229.250 202.240,231.000 204.000 M139.600 202.600 C 140.346 203.370,141.047 204.000,141.157 204.000 C 141.267 204.000,140.746 203.370,140.000 202.600 C 139.254 201.830,138.553 201.200,138.443 201.200 C 138.333 201.200,138.854 201.830,139.600 202.600 M203.300 202.276 C 203.685 202.376,204.315 202.376,204.700 202.276 C 205.085 202.175,204.770 202.093,204.000 202.093 C 203.230 202.093,202.915 202.175,203.300 202.276 M154.100 204.287 C 154.705 204.378,155.695 204.378,156.300 204.287 C 156.905 204.195,156.410 204.120,155.200 204.120 C 153.990 204.120,153.495 204.195,154.100 204.287 M144.800 207.400 C 145.546 208.170,146.247 208.800,146.357 208.800 C 146.467 208.800,145.946 208.170,145.200 207.400 C 144.454 206.630,143.753 206.000,143.643 206.000 C 143.533 206.000,144.054 206.630,144.800 207.400 M203.100 206.282 C 203.595 206.378,204.405 206.378,204.900 206.282 C 205.395 206.187,204.990 206.109,204.000 206.109 C 203.010 206.109,202.605 206.187,203.100 206.282 M228.200 209.600 C 229.506 210.920,230.665 212.000,230.775 212.000 C 230.885 212.000,229.906 210.920,228.600 209.600 C 227.294 208.280,226.135 207.200,226.025 207.200 C 225.915 207.200,226.894 208.280,228.200 209.600 M221.400 211.200 C 222.706 212.520,223.865 213.600,223.975 213.600 C 224.085 213.600,223.106 212.520,221.800 211.200 C 220.494 209.880,219.335 208.800,219.225 208.800 C 219.115 208.800,220.094 209.880,221.400 211.200 M115.500 209.489 C 116.215 209.578,117.385 209.578,118.100 209.489 C 118.815 209.401,118.230 209.328,116.800 209.328 C 115.370 209.328,114.785 209.401,115.500 209.489 M215.800 212.400 C 217.550 214.160,219.071 215.600,219.181 215.600 C 219.291 215.600,217.950 214.160,216.200 212.400 C 214.450 210.640,212.929 209.200,212.819 209.200 C 212.709 209.200,214.050 210.640,215.800 212.400 M154.505 210.287 C 155.114 210.379,156.014 210.377,156.505 210.282 C 156.997 210.187,156.500 210.111,155.400 210.114 C 154.300 210.117,153.897 210.195,154.505 210.287 M126.000 213.000 C 126.746 213.770,127.447 214.400,127.557 214.400 C 127.667 214.400,127.146 213.770,126.400 213.000 C 125.654 212.230,124.953 211.600,124.843 211.600 C 124.733 211.600,125.254 212.230,126.000 213.000 M203.100 212.282 C 203.595 212.378,204.405 212.378,204.900 212.282 C 205.395 212.187,204.990 212.109,204.000 212.109 C 203.010 212.109,202.605 212.187,203.100 212.282 M209.200 214.200 C 210.395 215.410,211.463 216.400,211.573 216.400 C 211.683 216.400,210.795 215.410,209.600 214.200 C 208.405 212.990,207.337 212.000,207.227 212.000 C 207.117 212.000,208.005 212.990,209.200 214.200 M241.907 215.890 C 242.626 215.979,243.706 215.977,244.307 215.886 C 244.908 215.795,244.320 215.722,243.000 215.724 C 241.680 215.726,241.188 215.801,241.907 215.890 M130.000 216.525 C 130.000 216.594,130.585 217.179,131.300 217.825 L 132.600 219.000 131.425 217.700 C 130.330 216.488,130.000 216.216,130.000 216.525 M123.200 218.600 C 123.946 219.370,124.647 220.000,124.757 220.000 C 124.867 220.000,124.346 219.370,123.600 218.600 C 122.854 217.830,122.153 217.200,122.043 217.200 C 121.933 217.200,122.454 217.830,123.200 218.600 M229.400 219.600 C 230.483 220.700,231.460 221.600,231.570 221.600 C 231.680 221.600,230.883 220.700,229.800 219.600 C 228.717 218.500,227.740 217.600,227.630 217.600 C 227.520 217.600,228.317 218.500,229.400 219.600 M136.783 222.900 C 138.441 224.666,138.800 224.984,138.800 224.683 C 138.800 224.619,137.945 223.764,136.900 222.783 L 135.000 221.000 136.783 222.900 M128.400 223.400 C 129.146 224.170,129.847 224.800,129.957 224.800 C 130.067 224.800,129.546 224.170,128.800 223.400 C 128.054 222.630,127.353 222.000,127.243 222.000 C 127.133 222.000,127.654 222.630,128.400 223.400 M216.800 222.125 C 216.800 222.194,217.385 222.779,218.100 223.425 L 219.400 224.600 218.225 223.300 C 217.130 222.088,216.800 221.816,216.800 222.125 M143.720 228.800 C 143.720 230.010,143.795 230.505,143.887 229.900 C 143.978 229.295,143.978 228.305,143.887 227.700 C 143.795 227.095,143.720 227.590,143.720 228.800 M132.531 229.800 C 132.533 231.340,132.605 231.921,132.692 231.091 C 132.779 230.261,132.777 229.001,132.689 228.291 C 132.600 227.581,132.529 228.260,132.531 229.800 M178.823 227.772 C 178.562 228.087,178.420 229.032,178.507 229.872 L 178.666 231.400 178.733 229.780 C 178.770 228.889,179.016 227.944,179.280 227.680 C 179.544 227.416,179.656 227.200,179.529 227.200 C 179.402 227.200,179.084 227.457,178.823 227.772 M255.701 228.600 C 255.705 229.480,255.787 229.793,255.883 229.295 C 255.979 228.798,255.975 228.078,255.875 227.695 C 255.775 227.313,255.696 227.720,255.701 228.600 M138.524 229.800 C 138.526 231.120,138.601 231.612,138.690 230.893 C 138.779 230.174,138.777 229.094,138.686 228.493 C 138.595 227.892,138.522 228.480,138.524 229.800 M149.693 228.800 C 149.693 229.570,149.775 229.885,149.876 229.500 C 149.976 229.115,149.976 228.485,149.876 228.100 C 149.775 227.715,149.693 228.030,149.693 228.800 M172.509 230.000 C 172.509 230.990,172.587 231.395,172.682 230.900 C 172.778 230.405,172.778 229.595,172.682 229.100 C 172.587 228.605,172.509 229.010,172.509 230.000 M233.600 237.800 C 234.346 238.570,235.047 239.200,235.157 239.200 C 235.267 239.200,234.746 238.570,234.000 237.800 C 233.254 237.030,232.553 236.400,232.443 236.400 C 232.333 236.400,232.854 237.030,233.600 237.800 M229.800 242.000 C 230.659 242.880,231.452 243.600,231.562 243.600 C 231.672 243.600,231.059 242.880,230.200 242.000 C 229.341 241.120,228.548 240.400,228.438 240.400 C 228.328 240.400,228.941 241.120,229.800 242.000 M255.381 242.500 L 253.800 244.200 255.500 242.619 C 257.081 241.148,257.384 240.800,257.081 240.800 C 257.016 240.800,256.251 241.565,255.381 242.500 M139.000 246.000 C 139.859 246.880,140.652 247.600,140.762 247.600 C 140.872 247.600,140.259 246.880,139.400 246.000 C 138.541 245.120,137.748 244.400,137.638 244.400 C 137.528 244.400,138.141 245.120,139.000 246.000 M171.578 246.300 L 170.200 247.800 171.700 246.422 C 173.096 245.138,173.384 244.800,173.078 244.800 C 173.012 244.800,172.337 245.475,171.578 246.300 M138.383 266.100 C 140.041 267.866,140.400 268.184,140.400 267.883 C 140.400 267.819,139.545 266.964,138.500 265.983 L 136.600 264.200 138.383 266.100 M268.185 266.500 L 266.200 268.600 268.300 266.615 C 269.455 265.523,270.400 264.578,270.400 264.515 C 270.400 264.217,270.029 264.549,268.185 266.500 M197.300 287.076 C 197.685 287.176,198.315 287.176,198.700 287.076 C 199.085 286.975,198.770 286.893,198.000 286.893 C 197.230 286.893,196.915 286.975,197.300 287.076 M208.500 287.076 C 208.885 287.176,209.515 287.176,209.900 287.076 C 210.285 286.975,209.970 286.893,209.200 286.893 C 208.430 286.893,208.115 286.975,208.500 287.076 M197.105 293.083 C 197.602 293.179,198.322 293.175,198.705 293.075 C 199.087 292.975,198.680 292.896,197.800 292.901 C 196.920 292.905,196.607 292.987,197.105 293.083 M208.705 293.083 C 209.202 293.179,209.922 293.175,210.305 293.075 C 210.687 292.975,210.280 292.896,209.400 292.901 C 208.520 292.905,208.207 292.987,208.705 293.083 M34.548 415.600 C 34.548 417.910,34.614 418.855,34.695 417.700 C 34.776 416.545,34.776 414.655,34.695 413.500 C 34.614 412.345,34.548 413.290,34.548 415.600 M78.854 414.100 C 78.825 415.585,78.936 416.800,79.103 416.800 C 79.269 416.800,79.352 415.945,79.286 414.900 C 79.079 411.613,78.911 411.302,78.854 414.100 M77.714 416.200 C 77.717 417.300,77.795 417.703,77.887 417.095 C 77.979 416.486,77.977 415.586,77.882 415.095 C 77.787 414.603,77.711 415.100,77.714 416.200 M380.245 416.472 C 380.356 416.653,380.761 416.800,381.144 416.800 C 381.527 416.800,382.036 416.996,382.275 417.235 C 382.588 417.548,382.796 417.531,383.017 417.173 C 383.215 416.853,383.159 416.778,382.862 416.962 C 382.608 417.119,382.400 417.077,382.400 416.869 C 382.400 416.661,381.870 416.413,381.221 416.318 C 380.573 416.223,380.133 416.292,380.245 416.472 M358.667 416.667 C 358.520 416.813,358.403 417.128,358.406 417.367 C 358.410 417.655,358.511 417.646,358.706 417.340 C 358.868 417.088,359.450 416.797,360.000 416.695 L 361.000 416.509 359.967 416.454 C 359.398 416.425,358.813 416.520,358.667 416.667 M367.467 416.667 C 367.320 416.813,367.203 417.128,367.206 417.367 C 367.210 417.655,367.311 417.646,367.506 417.340 C 367.668 417.088,368.250 416.797,368.800 416.695 L 369.800 416.509 368.767 416.454 C 368.198 416.425,367.613 416.520,367.467 416.667 M25.200 417.133 C 25.200 417.420,24.392 417.628,23.100 417.672 L 21.000 417.744 22.956 417.896 C 24.795 418.039,26.083 417.550,25.473 416.940 C 25.323 416.790,25.200 416.877,25.200 417.133 M77.714 420.200 C 77.717 421.300,77.795 421.703,77.887 421.095 C 77.979 420.486,77.977 419.586,77.882 419.095 C 77.787 418.603,77.711 419.100,77.714 420.200 M78.909 420.400 C 78.909 421.390,78.987 421.795,79.082 421.300 C 79.178 420.805,79.178 419.995,79.082 419.500 C 78.987 419.005,78.909 419.410,78.909 420.400 M316.032 420.124 C 316.014 420.522,315.850 420.755,315.667 420.641 C 315.483 420.528,315.333 420.706,315.333 421.037 C 315.333 421.562,315.407 421.565,315.913 421.058 C 316.232 420.739,316.396 420.236,316.278 419.939 C 316.135 419.579,316.053 419.641,316.032 420.124 M375.700 420.276 C 376.085 420.376,376.715 420.376,377.100 420.276 C 377.485 420.175,377.170 420.093,376.400 420.093 C 375.630 420.093,375.315 420.175,375.700 420.276 M354.700 421.082 C 355.195 421.178,356.005 421.178,356.500 421.082 C 356.995 420.987,356.590 420.909,355.600 420.909 C 354.610 420.909,354.205 420.987,354.700 421.082 " stroke="none" fill="#848486" fill-rule="evenodd"></path></g></svg>